<svg xmlns="http://www.w3.org/2000/svg" width="64" height="64" viewBox="0 0 64 64" role="img" aria-label="Shopify">
  <rect width="64" height="64" rx="14" fill="#95BF47"/>
  <path fill="#fff" d="M42.7 19.1c-.1-.7-.7-1.1-1.2-1.1-.5 0-3.6-.3-3.6-.3s-2.1-2.1-2.3-2.3c-.2-.2-.7-.2-.9-.1l-1.2.4c-.7-2-2-3.8-4.3-3.8h-.2c-.7-.9-1.5-1.3-2.2-1.3-5.4 0-8 6.8-8.8 10.2l-3.7 1.2c-1.1.3-1.2.4-1.3 1.5-.1.8-3 23.2-3 23.2L33.5 51 47 48.1s-4.2-28.3-4.3-29zM32.2 16l-1.9.6v-.4c0-1.4-.2-2.5-.6-3.4 1.2.2 2 1.5 2.5 3.2zm-3.9.9-4 .1c1-2.7 2.4-4 3.5-4.5.4.9.5 2.2.5 3.5v.9zm-1.7-4.8c-1.5.7-3.1 2.5-4.2 5.5l-3.1 1c.9-3.1 3-6.5 7.3-6.5zm-.9 16c.1 2.1 5.7 2.6 6 7.6.2 3.9-2.1 6.5-5.4 6.7-4 .3-6.2-2.1-6.2-2.1l.8-3.5s2.2 1.7 3.9 1.6c1.1-.1 1.5-1 1.5-1.6-.1-2.8-4.7-2.6-5-7.2-.2-3.8 2.2-7.7 7.7-8.1 2.1-.1 3.2.4 3.2.4L31 22.5s-1.4-.6-3-.4c-2.3.1-2.4 1.6-2.3 2z"/>
</svg>
